HIERARCHY
ROOT newVegas:Hips
{
	OFFSET 0.000000 96.479958 0.000000
	CHANNELS 6 Xposition Yposition Zposition Xrotation Yrotation Zrotation
	JOINT newVegas:Pelvis
	{
		OFFSET 0.000000 0.000000 0.000000
		CHANNELS 3 Xrotation Yrotation Zrotation
		JOINT newVegas:LeftUpLeg
		{
			OFFSET 18.735201 -5.666702 -4.541200
			CHANNELS 3 Xrotation Yrotation Zrotation
			JOINT newVegas:LeftLeg
			{
				OFFSET -0.021200 -31.938179 0.493100
				CHANNELS 3 Xrotation Yrotation Zrotation
				JOINT newVegas:LeftFoot
				{
					OFFSET 0.021200 -31.938179 -4.336299
					CHANNELS 3 Xrotation Yrotation Zrotation
					JOINT newVegas:LeftToeBase
					{
						OFFSET 0.943001 -26.722000 15.023500
						CHANNELS 3 Xrotation Yrotation Zrotation
						End Site
						{
							OFFSET 0.000000 30.670183 0.000000
						}
					}
				}
				JOINT newVegas:Left_PantLeg
				{
					OFFSET 0.663870 -9.044666 -1.108900
					CHANNELS 3 Xrotation Yrotation Zrotation
					End Site
					{
						OFFSET 1.415995 20.635357 0.000000
					}
				}
			}
		}
		JOINT newVegas:RightUpLeg
		{
			OFFSET -18.735201 -5.666702 -4.541200
			CHANNELS 3 Xrotation Yrotation Zrotation
			JOINT newVegas:RightLeg
			{
				OFFSET 0.018946 -31.938133 0.493100
				CHANNELS 3 Xrotation Yrotation Zrotation
				JOINT newVegas:RightFoot
				{
					OFFSET -0.018946 -31.938126 -4.336299
					CHANNELS 3 Xrotation Yrotation Zrotation
					JOINT newVegas:RightToeBase
					{
						OFFSET -0.943001 -26.722004 15.023500
						CHANNELS 3 Xrotation Yrotation Zrotation
						End Site
						{
							OFFSET 0.000000 30.670187 0.000000
						}
					}
				}
				JOINT newVegas:Right_PantLeg
				{
					OFFSET -0.661674 -9.044716 -1.108900
					CHANNELS 3 Xrotation Yrotation Zrotation
					End Site
					{
						OFFSET -1.415958 20.635269 0.000000
					}
				}
			}
		}
	}
	JOINT newVegas:Spine
	{
		OFFSET 0.000000 10.199997 -0.299500
		CHANNELS 3 Xrotation Yrotation Zrotation
		JOINT newVegas:Spine1
		{
			OFFSET 0.000000 11.900002 -1.516600
			CHANNELS 3 Xrotation Yrotation Zrotation
			JOINT newVegas:Spine2
			{
				OFFSET 0.000000 13.600006 -2.842500
				CHANNELS 3 Xrotation Yrotation Zrotation
				JOINT newVegas:Neck
				{
					OFFSET 0.000000 9.624100 -2.890100
					CHANNELS 3 Xrotation Yrotation Zrotation
					JOINT newVegas:Head
					{
						OFFSET 0.000000 14.068802 -1.351900
						CHANNELS 3 Xrotation Yrotation Zrotation
						JOINT newVegas:Hair_Back
						{
							OFFSET 0.000000 3.231903 -17.524799
							CHANNELS 3 Xrotation Yrotation Zrotation
							End Site
							{
								OFFSET 0.000000 19.849884 0.000000
							}
						}
						JOINT newVegas:Hair_Front
						{
							OFFSET 0.000000 31.260406 4.573800
							CHANNELS 3 Xrotation Yrotation Zrotation
							JOINT newVegas:Hair_Front1
							{
								OFFSET 0.000000 2.284103 11.993300
								CHANNELS 3 Xrotation Yrotation Zrotation
								JOINT newVegas:Hair_Front2
								{
									OFFSET 0.000000 2.284103 11.993300
									CHANNELS 3 Xrotation Yrotation Zrotation
									End Site
									{
										OFFSET 0.000000 12.208862 0.000000
									}
								}
							}
						}
						JOINT newVegas:Jowel
						{
							OFFSET 0.000000 -7.458206 6.864100
							CHANNELS 3 Xrotation Yrotation Zrotation
							End Site
							{
								OFFSET 0.000000 19.849884 0.000000
							}
						}
					}
				}
				JOINT newVegas:LeftShoulder
				{
					OFFSET 15.263000 10.923401 -0.547700
					CHANNELS 3 Xrotation Yrotation Zrotation
					JOINT newVegas:LeftArm
					{
						OFFSET 25.438599 -2.830597 -13.032500
						CHANNELS 3 Xrotation Yrotation Zrotation
						JOINT newVegas:LeftForeArm
						{
							OFFSET 29.960503 0.000000 0.000000
							CHANNELS 3 Xrotation Yrotation Zrotation
							JOINT newVegas:LeftHand
							{
								OFFSET 27.849251 0.000000 0.000000
								CHANNELS 3 Xrotation Yrotation Zrotation
								JOINT newVegas:LeftHandThumb1
								{
									OFFSET 4.487587 -3.305161 6.305391
									CHANNELS 3 Xrotation Yrotation Zrotation
									JOINT newVegas:LeftHandThumb2
									{
										OFFSET 5.480453 -3.164139 3.164143
										CHANNELS 3 Xrotation Yrotation Zrotation
										JOINT newVegas:LeftHandThumb3
										{
											OFFSET 5.159721 -2.978973 2.978967
											CHANNELS 3 Xrotation Yrotation Zrotation
											End Site
											{
												OFFSET 2.494507 5.926697 1.738678
											}
										}
									}
								}
								JOINT newVegas:LeftHandIndex1
								{
									OFFSET 18.578728 -0.527832 5.208049
									CHANNELS 3 Xrotation Yrotation Zrotation
									JOINT newVegas:LeftHandIndex2
									{
										OFFSET 3.192009 0.000000 0.000000
										CHANNELS 3 Xrotation Yrotation Zrotation
										JOINT newVegas:LeftHandIndex3
										{
											OFFSET 3.835129 0.000000 0.000000
											CHANNELS 3 Xrotation Yrotation Zrotation
											End Site
											{
												OFFSET -0.034599 3.816971 0.371180
											}
										}
									}
								}
								JOINT newVegas:LeftHandMiddle1
								{
									OFFSET 18.476105 0.000000 0.000000
									CHANNELS 3 Xrotation Yrotation Zrotation
									JOINT newVegas:LeftHandMiddle2
									{
										OFFSET 3.324875 0.000000 0.000000
										CHANNELS 3 Xrotation Yrotation Zrotation
										JOINT newVegas:LeftHandMiddle3
										{
											OFFSET 4.596550 0.000000 0.000000
											CHANNELS 3 Xrotation Yrotation Zrotation
											End Site
											{
												OFFSET 0.057701 4.578827 0.399218
											}
										}
									}
								}
								JOINT newVegas:LeftHandRing1
								{
									OFFSET 17.732719 0.121887 -4.201567
									CHANNELS 3 Xrotation Yrotation Zrotation
									JOINT newVegas:LeftHandRing2
									{
										OFFSET 2.733170 0.000000 0.000000
										CHANNELS 3 Xrotation Yrotation Zrotation
										JOINT newVegas:LeftHandRing3
										{
											OFFSET 3.178268 0.000000 0.000000
											CHANNELS 3 Xrotation Yrotation Zrotation
											End Site
											{
												OFFSET 0.119102 3.170624 0.185394
											}
										}
									}
								}
								JOINT newVegas:LeftHandPinky1
								{
									OFFSET 15.989624 -0.606689 -7.535461
									CHANNELS 3 Xrotation Yrotation Zrotation
									JOINT newVegas:LeftHandPinky2
									{
										OFFSET 2.538986 0.000000 0.000000
										CHANNELS 3 Xrotation Yrotation Zrotation
										JOINT newVegas:LeftHandPinky3
										{
											OFFSET 2.593102 0.000000 0.000000
											CHANNELS 3 Xrotation Yrotation Zrotation
											End Site
											{
												OFFSET -0.150902 2.584198 0.152708
											}
										}
									}
								}
							}
							JOINT newVegas:Left_Sleeve
							{
								OFFSET 0.267448 -0.649796 0.577675
								CHANNELS 3 Xrotation Yrotation Zrotation
								End Site
								{
									OFFSET 0.000000 15.991241 0.000000
								}
							}
							JOINT newVegas:Left_CapeC
							{
								OFFSET 15.715958 -8.608795 -6.935905
								CHANNELS 3 Xrotation Yrotation Zrotation
								JOINT newVegas:Left_CapeC1
								{
									OFFSET 0.000000 -8.688499 0.000000
									CHANNELS 3 Xrotation Yrotation Zrotation
									End Site
									{
										OFFSET 0.000000 8.688499 0.000000
									}
								}
							}
						}
						JOINT newVegas:Left_CapeB
						{
							OFFSET 26.118385 -8.608795 -7.079235
							CHANNELS 3 Xrotation Yrotation Zrotation
							JOINT newVegas:Left_CapeB1
							{
								OFFSET 0.000000 -8.688499 0.000000
								CHANNELS 3 Xrotation Yrotation Zrotation
								End Site
								{
									OFFSET 0.000000 8.688499 0.000000
								}
							}
						}
						JOINT newVegas:Left_CapeA
						{
							OFFSET 5.115639 -8.608795 -10.395809
							CHANNELS 3 Xrotation Yrotation Zrotation
							JOINT newVegas:Left_CapeA1
							{
								OFFSET 0.000000 -8.688499 0.000000
								CHANNELS 3 Xrotation Yrotation Zrotation
								End Site
								{
									OFFSET 0.000000 8.688499 0.000000
								}
							}
						}
					}
				}
				JOINT newVegas:RightShoulder
				{
					OFFSET -15.263000 10.923401 -0.547700
					CHANNELS 3 Xrotation Yrotation Zrotation
					JOINT newVegas:RightArm
					{
						OFFSET -25.438599 -2.830597 -13.032500
						CHANNELS 3 Xrotation Yrotation Zrotation
						JOINT newVegas:RightForeArm
						{
							OFFSET -29.960503 0.000000 0.000000
							CHANNELS 3 Xrotation Yrotation Zrotation
							JOINT newVegas:RightHand
							{
								OFFSET -27.849251 0.000000 0.000000
								CHANNELS 3 Xrotation Yrotation Zrotation
								JOINT newVegas:RightHandThumb1
								{
									OFFSET -4.487587 -3.305161 6.305391
									CHANNELS 3 Xrotation Yrotation Zrotation
									JOINT newVegas:RightHandThumb2
									{
										OFFSET -5.480453 -3.164139 3.164143
										CHANNELS 3 Xrotation Yrotation Zrotation
										JOINT newVegas:RightHandThumb3
										{
											OFFSET -5.159721 -2.978973 2.978967
											CHANNELS 3 Xrotation Yrotation Zrotation
											End Site
											{
												OFFSET -2.494507 5.926697 1.738678
											}
										}
									}
								}
								JOINT newVegas:RightHandIndex1
								{
									OFFSET -18.578728 -0.527832 5.208049
									CHANNELS 3 Xrotation Yrotation Zrotation
									JOINT newVegas:RightHandIndex2
									{
										OFFSET -3.192009 0.000000 0.000000
										CHANNELS 3 Xrotation Yrotation Zrotation
										JOINT newVegas:RightHandIndex3
										{
											OFFSET -3.835129 0.000000 0.000000
											CHANNELS 3 Xrotation Yrotation Zrotation
											End Site
											{
												OFFSET 0.034599 3.816971 0.371180
											}
										}
									}
								}
								JOINT newVegas:RightHandMiddle1
								{
									OFFSET -18.476105 0.000000 0.000000
									CHANNELS 3 Xrotation Yrotation Zrotation
									JOINT newVegas:RightHandMiddle2
									{
										OFFSET -3.324875 0.000000 0.000000
										CHANNELS 3 Xrotation Yrotation Zrotation
										JOINT newVegas:RightHandMiddle3
										{
											OFFSET -4.596550 0.000000 0.000000
											CHANNELS 3 Xrotation Yrotation Zrotation
											End Site
											{
												OFFSET -0.057701 4.578827 0.399218
											}
										}
									}
								}
								JOINT newVegas:RightHandRing1
								{
									OFFSET -17.732719 0.121887 -4.201567
									CHANNELS 3 Xrotation Yrotation Zrotation
									JOINT newVegas:RightHandRing2
									{
										OFFSET -2.733170 0.000000 0.000000
										CHANNELS 3 Xrotation Yrotation Zrotation
										JOINT newVegas:RightHandRing3
										{
											OFFSET -3.178268 0.000000 0.000000
											CHANNELS 3 Xrotation Yrotation Zrotation
											End Site
											{
												OFFSET -0.119102 3.170624 0.185394
											}
										}
									}
								}
								JOINT newVegas:RightHandPinky1
								{
									OFFSET -15.989624 -0.606689 -7.535461
									CHANNELS 3 Xrotation Yrotation Zrotation
									JOINT newVegas:RightHandPinky2
									{
										OFFSET -2.538986 0.000000 0.000000
										CHANNELS 3 Xrotation Yrotation Zrotation
										JOINT newVegas:RightHandPinky3
										{
											OFFSET -2.593102 0.000000 0.000000
											CHANNELS 3 Xrotation Yrotation Zrotation
											End Site
											{
												OFFSET 0.150902 2.584198 0.152708
											}
										}
									}
								}
							}
							JOINT newVegas:Right_CapeC
							{
								OFFSET -15.715958 -8.608795 -6.935905
								CHANNELS 3 Xrotation Yrotation Zrotation
								JOINT newVegas:Right_CapeC1
								{
									OFFSET 0.000000 -8.688499 0.000000
									CHANNELS 3 Xrotation Yrotation Zrotation
									End Site
									{
										OFFSET 0.000000 8.688499 0.000000
									}
								}
							}
							JOINT newVegas:Right_Sleeve
							{
								OFFSET -0.267448 -0.649994 0.577675
								CHANNELS 3 Xrotation Yrotation Zrotation
								End Site
								{
									OFFSET 0.000000 15.991302 0.000000
								}
							}
						}
						JOINT newVegas:Right_CapeA
						{
							OFFSET -5.115540 -8.608795 -10.395824
							CHANNELS 3 Xrotation Yrotation Zrotation
							JOINT newVegas:Right_CapeA1
							{
								OFFSET 0.000000 -8.688499 0.000000
								CHANNELS 3 Xrotation Yrotation Zrotation
								End Site
								{
									OFFSET 0.000000 8.688499 0.000000
								}
							}
						}
						JOINT newVegas:Right_CapeB
						{
							OFFSET -26.118187 -8.608795 -7.079266
							CHANNELS 3 Xrotation Yrotation Zrotation
							JOINT newVegas:Right_CapeB1
							{
								OFFSET 0.000000 -8.688499 0.000000
								CHANNELS 3 Xrotation Yrotation Zrotation
								End Site
								{
									OFFSET 0.000000 8.688499 0.000000
								}
							}
						}
					}
				}
				JOINT newVegas:Left_Collar
				{
					OFFSET 18.625099 8.655502 8.828100
					CHANNELS 3 Xrotation Yrotation Zrotation
					JOINT newVegas:Left_Collar1
					{
						OFFSET 14.783401 10.540405 -1.259500
						CHANNELS 3 Xrotation Yrotation Zrotation
						End Site
						{
							OFFSET 0.000000 18.199875 0.000000
						}
					}
				}
				JOINT newVegas:Collar_Back
				{
					OFFSET 0.000000 15.630707 -20.132601
					CHANNELS 3 Xrotation Yrotation Zrotation
					End Site
					{
						OFFSET 0.000000 22.523010 0.000000
					}
				}
				JOINT newVegas:Left_Peck
				{
					OFFSET 17.239599 -5.132599 25.482599
					CHANNELS 3 Xrotation Yrotation Zrotation
					End Site
					{
						OFFSET 0.000000 22.523010 0.000000
					}
				}
				JOINT newVegas:Right_Peck
				{
					OFFSET -17.239599 -5.132202 25.482599
					CHANNELS 3 Xrotation Yrotation Zrotation
					End Site
					{
						OFFSET 0.000000 22.523010 0.000000
					}
				}
				JOINT newVegas:Right_Collar
				{
					OFFSET -18.625099 8.655792 8.828100
					CHANNELS 3 Xrotation Yrotation Zrotation
					JOINT newVegas:Right_Collar1
					{
						OFFSET -14.783401 10.539993 -1.259500
						CHANNELS 3 Xrotation Yrotation Zrotation
						End Site
						{
							OFFSET 0.000000 18.199631 0.000000
						}
					}
				}
			}
		}
		JOINT newVegas:Belly
		{
			OFFSET 0.000000 -6.540398 9.014299
			CHANNELS 3 Xrotation Yrotation Zrotation
			End Site
			{
				OFFSET 0.000000 11.566666 0.000000
			}
		}
	}
	JOINT newVegas:ElvisFacialAnim_Joint
	{
		OFFSET 1.000000 -95.330101 -8.825800
		CHANNELS 3 Xrotation Yrotation Zrotation
		End Site
		{
			OFFSET 0.000000 35.315800 0.000000
		}
	}
}
MOTION
Frames: 4
Frame Time: 0.033333
1.359341 81.918266 4.342887 11.260340 -1.382664 -5.219013 -0.000001 0.000000 0.000000 -79.025159 -3.953959 7.411827 127.077910 6.387997 0.548096 27.321020 0.512265 0.815089 -0.000000 -0.000001 -0.000000 0.000001 -0.000000 0.000001 -36.581810 -11.402324 6.935154 60.780795 0.477534 1.327103 -35.007107 3.251268 -8.177553 -0.000000 -0.000001 -0.000000 -0.000001 0.000000 -0.000001 10.000827 1.835958 7.300852 2.029115 -0.047010 0.508498 4.987210 -0.052526 0.186543 -1.224466 0.052406 -0.107543 -1.224485 0.052407 -0.107544 0.000001 -0.000000 -0.000000 -1.224537 0.052409 -0.107543 -1.224252 0.052402 -0.107541 0.000001 0.000000 0.000000 0.000001 -0.000000 -0.000000 0.557765 -4.314583 -11.777471 13.923797 -4.817013 -56.121387 -0.000000 -89.999962 -0.000008 3.946660 -2.534505 11.903165 -0.820504 6.623780 -5.864583 14.168490 15.386727 18.402799 0.000004 -0.000001 -0.000004 9.947279 5.735771 -90.836250 4.054209 5.569246 -72.086397 -0.000002 0.000000 -0.000000 4.883441 8.107966 -80.603370 4.657609 5.728451 -78.210768 0.000001 -0.000002 0.000000 2.753107 7.678675 -78.443534 5.946871 5.850248 -90.939878 0.000003 -0.000000 -0.000002 7.311314 13.596526 -78.537238 4.413840 5.672362 -75.756961 0.000001 -0.000005 0.000001 0.000000 -0.000002 -0.000002 0.000000 -0.000002 -0.000002 -0.000001 -0.000002 -0.000001 -0.000000 0.000001 -0.000001 -0.000000 0.000000 -0.000001 -0.000000 0.000001 -0.000001 -0.000000 0.000000 -0.000000 0.567965 4.488694 11.813873 -16.187055 25.518750 44.451182 -0.001108 90.272261 0.001707 7.843992 11.318560 -12.809373 5.535793 -3.771045 -3.032816 2.457525 -9.078648 -15.939549 0.000002 -0.000000 -0.000001 -3.723512 -3.298346 73.104990 3.463136 -4.501811 75.128502 -0.000000 0.000001 0.000000 -3.073221 -4.980224 74.622358 3.766040 -4.571289 78.956980 -0.000002 -0.000002 -0.000001 -3.819537 -5.359639 78.849521 3.124256 -4.398156 70.762850 -0.000001 -0.000001 -0.000000 -1.443981 -6.451718 84.219552 3.515509 -4.515343 75.795074 -0.000001 0.000003 -0.000000 0.000000 0.000000 0.000000 -0.000001 0.000001 0.000000 0.000001 0.000001 0.000001 -0.000001 -0.000001 0.000001 -0.000000 -0.000001 0.000001 -0.000001 -0.000001 0.000001 -0.000000 -0.000001 0.000001 -0.000001 0.000000 -0.000000 -0.000001 0.000000 -0.000000 -0.000001 0.000000 -0.000000 -0.000001 0.000000 -0.000000 -0.000001 0.000000 -0.000000 -0.000001 0.000000 -0.000000 -0.000001 0.000000 -0.000000 -0.000000 -0.000000 0.000000 -0.000001 0.000000 0.000000 
1.384485 83.621315 17.834982 8.946128 0.145485 -3.335835 -0.000000 0.000000 0.000000 -90.978714 -2.239036 4.759088 115.017353 6.744982 0.152811 24.659529 6.103392 -1.723542 -0.000004 0.000000 0.000002 -0.000000 0.000001 -0.000000 -17.109487 -10.707633 5.822423 51.358631 -1.025712 -0.179872 -39.041477 1.626046 -3.978523 0.000000 0.000000 0.000000 0.000004 0.000001 -0.000002 8.977467 2.173844 5.403212 1.609348 0.567377 -0.114730 4.369204 0.575776 -0.435032 -1.185821 -0.143616 0.186544 -1.185808 -0.143616 0.186544 -0.000001 -0.000000 -0.000000 -1.185896 -0.143613 0.186544 -1.185749 -0.143617 0.186545 -0.000000 0.000000 0.000000 -0.000001 -0.000000 -0.000000 0.713520 -3.985651 -10.638179 16.250898 -3.120112 -54.009816 0.000114 -82.729300 0.000128 9.140839 0.118269 -2.371222 -0.807205 6.979947 -6.020470 14.103849 15.607238 18.633427 0.000001 0.000003 -0.000003 10.378031 5.613019 -91.973073 4.144773 5.597560 -73.017058 -0.000002 -0.000001 -0.000001 5.051465 8.134853 -81.436509 4.758575 5.748502 -79.220577 0.000001 0.000001 0.000001 2.662333 7.685879 -79.109881 6.065490 5.847135 -92.103824 0.000001 0.000001 0.000002 7.186676 13.429736 -79.222367 4.510711 5.695970 -76.735051 0.000001 -0.000005 -0.000002 0.000002 0.000000 0.000000 0.000002 0.000000 0.000000 0.000001 0.000000 0.000000 0.000000 0.000000 -0.000002 0.000000 -0.000001 -0.000003 0.000000 0.000000 -0.000002 -0.000001 -0.000002 -0.000001 0.792878 4.723954 14.115872 -12.686775 23.919531 41.878707 -0.001250 90.684305 0.001716 2.884286 11.283596 -12.309812 5.799472 -3.790449 -3.050918 2.441888 -9.098399 -16.032925 0.000001 -0.000001 -0.000001 -3.662459 -3.385316 73.388791 3.487264 -4.508144 75.435601 0.000000 0.000004 0.000002 -3.099774 -5.011288 74.931485 3.792241 -4.576317 79.285478 -0.000002 0.000000 0.000000 -3.914790 -5.389206 79.191255 3.145493 -4.405496 71.039677 -0.000000 0.000002 -0.000000 -1.596239 -6.427881 84.583997 3.540046 -4.521474 76.106325 0.000001 0.000003 0.000001 -0.000000 0.000001 0.000001 -0.000000 -0.000000 -0.000001 -0.000000 0.000000 -0.000000 -0.000002 0.000001 -0.000002 -0.000001 0.000002 -0.000002 -0.000002 0.000001 -0.000002 -0.000001 0.000002 -0.000002 -0.000001 -0.000000 0.000000 -0.000001 -0.000000 0.000000 -0.000001 -0.000000 0.000000 -0.000001 -0.000000 0.000000 -0.000001 -0.000000 0.000000 -0.000001 -0.000000 0.000000 -0.000001 -0.000000 0.000000 0.000002 0.000000 -0.000000 -0.000000 0.000000 0.000000 
1.181490 85.872787 30.692146 6.169887 1.283272 -1.308684 0.000000 -0.000000 -0.000000 -88.961780 0.730107 3.276197 95.131810 7.935315 -0.480448 17.554515 7.409662 -0.691749 0.000002 -0.000000 -0.000000 0.000000 -0.000001 0.000001 1.018976 -11.744755 4.044723 37.595742 -1.517659 -1.608707 -31.830099 -0.753024 0.904975 0.000000 -0.000000 0.000000 0.000004 -0.000000 0.000000 7.511345 3.836120 3.416073 1.041875 1.659173 -0.719426 3.564307 1.644778 -1.041320 -1.142664 -0.378080 -0.237357 -1.142666 -0.378080 -0.237356 -0.000001 0.000001 -0.000000 -1.142670 -0.378080 -0.237356 -1.142594 -0.378083 -0.237355 -0.000001 -0.000000 -0.000000 -0.000001 0.000001 -0.000000 0.508870 -7.379582 -10.160216 19.680505 2.136075 -51.818053 0.000021 -79.443187 0.000051 11.781922 0.600873 -13.792460 -0.775050 7.831658 -6.390706 13.943814 16.130200 19.180638 -0.000002 0.000000 -0.000001 11.389912 5.257676 -94.677043 4.362469 5.659168 -75.236644 0.000002 -0.000003 -0.000001 5.454249 8.184270 -83.423767 5.000660 5.789136 -81.628834 -0.000001 -0.000001 -0.000001 2.444954 7.714454 -80.698391 6.347897 5.829987 -94.879374 0.000002 0.000001 0.000002 6.874333 13.050244 -80.853744 4.743284 5.745578 -79.067813 -0.000003 0.000000 -0.000003 0.000001 0.000001 0.000001 0.000001 0.000001 0.000001 -0.000000 0.000001 0.000001 -0.000000 0.000000 0.000003 -0.000001 0.000000 0.000003 -0.000000 0.000000 0.000003 -0.000001 -0.000002 0.000005 1.729786 0.826420 12.748666 -11.737884 19.775150 44.798179 -0.000774 93.137074 0.000679 1.424444 14.566850 -10.644227 6.466063 -3.838394 -3.093649 2.402435 -9.148132 -16.269137 0.000002 0.000002 0.000001 -3.505054 -3.602586 74.107259 3.548409 -4.523531 76.212296 -0.000002 -0.000003 -0.000001 -3.166464 -5.091363 75.713241 3.858637 -4.588341 80.116432 -0.000002 0.000001 0.000001 -4.155554 -5.469464 80.054988 3.199380 -4.423584 71.739895 0.000002 0.000001 -0.000001 -1.988907 -6.434043 85.497808 3.602708 -4.536458 76.900082 0.000002 -0.000000 -0.000000 -0.000001 0.000002 0.000002 -0.000000 0.000001 0.000000 -0.000001 0.000002 0.000002 0.000001 0.000001 0.000001 0.000001 0.000002 -0.000001 0.000001 0.000001 0.000001 0.000002 0.000002 0.000001 0.000002 0.000000 -0.000000 0.000002 0.000000 -0.000000 0.000002 0.000000 -0.000000 0.000002 0.000000 -0.000000 0.000002 0.000000 -0.000000 0.000002 0.000000 -0.000000 0.000002 0.000000 -0.000000 0.000000 0.000000 0.000000 0.000000 -0.000000 -0.000000 
1.044342 87.114388 43.304359 3.400709 0.975522 -0.387346 -0.000000 -0.000000 0.000000 -81.435123 0.751271 3.515626 75.127689 6.119753 -0.546363 9.018636 5.675326 -6.075061 -0.000000 0.000000 0.000000 -0.000000 0.000001 -0.000000 12.393543 -12.969430 2.314440 28.400690 -0.847243 -2.558718 -15.549966 -1.719768 4.877857 0.000000 0.000000 -0.000000 -0.000003 0.000000 -0.000001 6.287479 5.744178 2.403901 0.650117 2.681157 -0.867641 2.927574 2.654016 -1.178784 -0.940634 -0.615527 -0.682690 -0.940633 -0.615535 -0.682689 0.000001 -0.000001 0.000000 -0.940632 -0.615520 -0.682690 -0.940637 -0.615531 -0.682689 -0.000001 0.000000 -0.000000 0.000001 -0.000001 -0.000000 0.324780 -10.349540 -9.955944 21.614571 9.056100 -50.096371 -0.000060 -76.632858 -0.000052 7.736291 2.464079 -22.091480 -0.735715 8.852588 -6.829804 13.742098 16.748981 19.828707 -0.000002 -0.000003 0.000000 12.562618 4.719970 -97.888898 4.625252 5.721658 -77.886437 -0.000005 -0.000003 -0.000003 5.937816 8.216054 -85.796383 5.291579 5.824323 -84.503633 -0.000003 -0.000002 0.000001 2.184619 7.769665 -82.593448 6.683355 5.791749 -98.191769 0.000002 -0.000004 -0.000001 6.475082 12.631982 -82.796605 5.023234 5.792377 -81.852529 0.000005 -0.000003 0.000001 0.000001 0.000002 -0.000002 0.000001 0.000002 -0.000002 0.000000 0.000002 -0.000002 0.000001 0.000001 0.000001 0.000001 0.000000 0.000001 0.000001 0.000001 0.000001 0.000001 -0.000001 0.000002 2.492527 -4.080557 10.581939 -9.467674 15.457114 48.271074 -0.000222 95.865093 0.000207 3.890807 20.486336 -10.598377 7.348869 -3.899544 -3.143658 2.350399 -9.213473 -16.582349 -0.000001 -0.000004 -0.000001 -3.290015 -3.884788 75.061026 3.629774 -4.542679 77.241974 -0.000002 -0.000003 -0.000002 -3.253715 -5.201110 76.749231 3.946874 -4.602786 81.217923 -0.000001 -0.000001 0.000000 -4.474014 -5.588130 81.198484 3.271168 -4.446559 72.668145 -0.000000 0.000001 -0.000000 -2.516967 -6.539916 86.695448 3.686983 -4.555203 77.963174 -0.000001 0.000001 0.000001 -0.000000 0.000001 0.000002 -0.000002 0.000000 0.000000 -0.000000 0.000001 -0.000000 0.000002 -0.000001 0.000002 0.000002 0.000000 0.000002 0.000002 -0.000001 0.000002 0.000002 0.000000 0.000002 -0.000000 0.000001 -0.000000 -0.000000 0.000001 -0.000000 -0.000000 0.000001 -0.000000 -0.000000 0.000001 -0.000000 -0.000000 0.000001 -0.000000 -0.000000 0.000001 -0.000000 -0.000000 0.000001 -0.000000 -0.000000 0.000000 -0.000000 -0.000000 -0.000000 0.000000 
